<svg xmlns="http://www.w3.org/2000/svg" viewBox="0 0 500 500"><g id="freepik--background-simple--inject-41"><path d="M252.45,77.74c94.47-10.34,111.56,97,154.29,136.5s41.93,108.17,7.91,130.49c-36.84,24.17-91.09,16.09-132.92,18s-146.38,39.49-180.4,2.57-32.44-114.18,19-142.51S158.3,88,252.45,77.74Z" style="fill:#407BFF"></path><path d="M252.45,77.74c94.47-10.34,111.56,97,154.29,136.5s41.93,108.17,7.91,130.49c-36.84,24.17-91.09,16.09-132.92,18s-146.38,39.49-180.4,2.57-32.44-114.18,19-142.51S158.3,88,252.45,77.74Z" style="fill:#fff;opacity:0.9"></path></g><g id="freepik--Shadow--inject-41"><ellipse id="freepik--path--inject-41" cx="250" cy="416.24" rx="193.89" ry="11.32" style="fill:#f5f5f5"></ellipse></g><g id="freepik--House--inject-41"><polygon points="95.5 296.74 131.97 258.77 209 258.77 249.18 296.74 95.5 296.74" style="fill:#407BFF"></polygon><polygon points="131.97 257.94 177.26 298.44 95.5 295.91 131.97 257.94" style="opacity:0.1"></polygon><rect x="94.67" y="301.3" width="136.56" height="49.31" style="fill:#407BFF"></rect><rect x="94.67" y="301.3" width="136.56" height="49.31" style="fill:#fff;opacity:0.8;isolation:isolate"></rect><rect x="94.67" y="301.3" width="80.46" height="49.31" style="opacity:0.05"></rect><rect x="147.89" y="308.32" width="78.63" height="29.05" style="fill:#407BFF"></rect><path d="M147.89,308.32v29.05h78.62V308.32Zm75.43,26.31H150.68V311.55h72.64Z" style="fill:#fff;opacity:0.1;isolation:isolate"></path><rect x="147.89" y="308.32" width="29.69" height="29.05" style="opacity:0.1"></rect><rect x="153.31" y="311.55" width="66.6" height="22.58" style="fill:#407BFF"></rect><rect x="153.31" y="311.56" width="66.61" height="22.58" style="fill:#fff;opacity:0.5;isolation:isolate"></rect><rect x="153.31" y="311.55" width="22.16" height="22.58" style="opacity:0.05"></rect><polygon points="171.61 311.56 165.56 334.14 157.31 334.14 163.36 311.56 171.61 311.56" style="fill:#fff;opacity:0.30000000000000004"></polygon><polygon points="219.92 311.56 219.92 331.32 219.16 334.14 210.92 334.14 216.96 311.56 219.92 311.56" style="fill:#fff;opacity:0.30000000000000004"></polygon><polygon points="176.51 311.56 170.47 334.14 168.09 334.14 174.13 311.56 176.51 311.56" style="fill:#fff;opacity:0.30000000000000004"></polygon><polygon points="214.63 311.56 208.58 334.14 207.39 334.14 213.43 311.56 214.63 311.56" style="fill:#fff;opacity:0.30000000000000004"></polygon><rect x="94.59" y="311.69" width="40.25" height="22.72"></rect><rect x="94.59" y="311.69" width="40.25" height="22.72" style="fill:#407BFF"></rect><rect x="94.59" y="311.69" width="40.25" height="22.72" style="fill:#fff;opacity:0.5;isolation:isolate"></rect><polygon points="94.59 311.69 94.59 331.73 99.95 311.69 94.59 311.69" style="fill:#fff;opacity:0.30000000000000004"></polygon><polygon points="105.58 311.69 99.5 334.41 96.78 334.41 102.86 311.69 105.58 311.69" style="fill:#fff;opacity:0.30000000000000004"></polygon><path d="M213.49,334.13h-50.7v1.63h2.31v15.29h1.25v-.9H182.9v.9h1.24v-.9h16.55v.9h1.25v-.9h16.84v.9H220v-.9h16.55v.9h1.25v-.9h16.55v.9h1.24V335.76h2.32v-1.63ZM182.9,349.72H166.35v-1.63H182.9Zm0-2.06H166.35V346H182.9Zm0-2.06H166.35V344H182.9Zm0-2.06H166.35V341.9H182.9Zm0-2.06H166.35v-1.64H182.9Zm0-2.06H166.35v-1.64H182.9Zm0-2.06H166.35v-1.6H182.9Zm17.79,12.36H184.14v-1.63h16.55Zm0-2.06H184.14V346h16.55Zm0-2.06H184.14V344h16.55Zm0-2.06H184.14V341.9h16.55Zm0-2.06H184.14v-1.64h16.55Zm0-2.06H184.14v-1.64h16.55Zm0-2.06H184.14v-1.6h16.55Zm18.09,12.36H201.94v-1.63h16.84Zm0-2.06H201.94V346h16.84Zm0-2.06H201.94V344h16.84Zm0-2.06H201.94V341.9h16.84Zm0-2.06H201.94v-1.64h16.84Zm0-2.06H201.94v-1.64h16.84Zm0-2.06H201.94v-1.6h16.84Zm17.79,12.36H220v-1.63h16.55Zm0-2.06H220V346h16.55Zm0-2.06H220V344h16.55Zm0-2.06H220V341.9h16.55Zm0-2.06H220v-1.64h16.55Zm0-2.06H220v-1.64h16.55Zm0-2.06H220v-1.6h16.55Zm17.8,12.36H237.82v-1.63h16.55Zm0-2.06H237.82V346h16.55Zm0-2.06H237.82V344h16.55Zm0-2.06H237.82V341.9h16.55Zm0-2.06H237.82v-1.64h16.55Zm0-2.06H237.82v-1.64h16.55Zm0-2.06H237.82v-1.6h16.55Z" style="fill:#407BFF"></path><path d="M213.49,334.13h-50.7v1.63h2.31v15.29h1.25v-.9H182.9v.9h1.24v-.9h16.55v.9h1.25v-.9h16.84v.9H220v-.9h16.55v.9h1.25v-.9h16.55v.9h1.24V335.76h2.32v-1.63ZM182.9,349.72H166.35v-1.63H182.9Zm0-2.06H166.35V346H182.9Zm0-2.06H166.35V344H182.9Zm0-2.06H166.35V341.9H182.9Zm0-2.06H166.35v-1.64H182.9Zm0-2.06H166.35v-1.64H182.9Zm0-2.06H166.35v-1.6H182.9Zm17.79,12.36H184.14v-1.63h16.55Zm0-2.06H184.14V346h16.55Zm0-2.06H184.14V344h16.55Zm0-2.06H184.14V341.9h16.55Zm0-2.06H184.14v-1.64h16.55Zm0-2.06H184.14v-1.64h16.55Zm0-2.06H184.14v-1.6h16.55Zm18.09,12.36H201.94v-1.63h16.84Zm0-2.06H201.94V346h16.84Zm0-2.06H201.94V344h16.84Zm0-2.06H201.94V341.9h16.84Zm0-2.06H201.94v-1.64h16.84Zm0-2.06H201.94v-1.64h16.84Zm0-2.06H201.94v-1.6h16.84Zm17.79,12.36H220v-1.63h16.55Zm0-2.06H220V346h16.55Zm0-2.06H220V344h16.55Zm0-2.06H220V341.9h16.55Zm0-2.06H220v-1.64h16.55Zm0-2.06H220v-1.64h16.55Zm0-2.06H220v-1.6h16.55Zm17.8,12.36H237.82v-1.63h16.55Zm0-2.06H237.82V346h16.55Zm0-2.06H237.82V344h16.55Zm0-2.06H237.82V341.9h16.55Zm0-2.06H237.82v-1.64h16.55Zm0-2.06H237.82v-1.64h16.55Zm0-2.06H237.82v-1.6h16.55Z" style="fill:#fff;opacity:0.30000000000000004;isolation:isolate"></path><rect x="200.92" y="353.61" width="52.99" height="57.64" style="fill:#407BFF"></rect><rect x="200.92" y="353.61" width="52.99" height="57.64" style="fill:#fff;opacity:0.30000000000000004;isolation:isolate"></rect><rect x="87.92" y="350.61" width="11.12" height="60.73" style="fill:#407BFF"></rect><rect x="87.92" y="350.61" width="11.12" height="60.73" style="fill:#fff;opacity:0.30000000000000004;isolation:isolate"></rect><rect x="91.97" y="356.24" width="7.07" height="55.1" style="fill:#fff;opacity:0.2;isolation:isolate"></rect><rect x="94.67" y="352.54" width="136.65" height="58.8" style="fill:#407BFF"></rect><rect x="94.67" y="352.54" width="136.65" height="58.8" style="fill:#fff;opacity:0.8;isolation:isolate"></rect><rect x="94.67" y="352.54" width="70.18" height="58.8" style="opacity:0.05"></rect><rect x="127.16" y="365.14" width="26.34" height="22.72"></rect><rect x="100.91" y="365.14" width="24.65" height="22.72"></rect><rect x="100.91" y="365.14" width="24.65" height="22.72" style="fill:#407BFF"></rect><rect x="127.16" y="365.14" width="26.34" height="22.72" style="fill:#407BFF"></rect><rect x="127.16" y="365.14" width="26.34" height="22.72" style="fill:#fff;opacity:0.5;isolation:isolate"></rect><rect x="100.91" y="365.14" width="24.65" height="22.72" style="fill:#fff;opacity:0.5;isolation:isolate"></rect><polygon points="117.67 365.14 111.58 387.86 102.11 387.86 108.19 365.14 117.67 365.14" style="fill:#fff;opacity:0.30000000000000004"></polygon><polygon points="123.29 365.14 117.21 387.86 114.49 387.86 120.57 365.14 123.29 365.14" style="fill:#fff;opacity:0.30000000000000004"></polygon><polygon points="153.5 367.41 153.5 387.86 148.03 387.86 153.5 367.41" style="fill:#fff;opacity:0.30000000000000004"></polygon><polygon points="232.49 387.86 232.49 365.14 237.32 365.14 237.32 361.18 201.66 361.18 201.66 391.88 237.32 391.88 237.32 387.86 232.49 387.86" style="fill:#407BFF"></polygon><rect x="208.88" y="365.14" width="24.65" height="22.72"></rect><rect x="208.88" y="365.14" width="24.65" height="22.72" style="fill:#407BFF"></rect><rect x="208.88" y="365.14" width="24.65" height="22.72" style="fill:#fff;opacity:0.5;isolation:isolate"></rect><polygon points="225.63 365.14 219.55 387.86 210.08 387.86 216.16 365.14 225.63 365.14" style="fill:#fff;opacity:0.30000000000000004"></polygon><polygon points="231.26 365.14 225.18 387.86 222.45 387.86 228.53 365.14 231.26 365.14" style="fill:#fff;opacity:0.30000000000000004"></polygon><rect x="201.65" y="361.18" width="3.37" height="30.7" style="opacity:0.1"></rect><rect x="171.39" y="365.14" width="17.31" height="46.2" style="fill:#407BFF"></rect><rect x="171.39" y="365.14" width="15.72" height="46.2" style="fill:#fff;opacity:0.1;isolation:isolate"></rect><rect x="181.82" y="368.25" width="3.44" height="14.55" style="fill:#fff;opacity:0.2;isolation:isolate"></rect><rect x="248.79" y="355.71" width="8.9" height="55.63" style="fill:#407BFF"></rect><rect x="248.79" y="355.71" width="8.9" height="55.63" style="fill:#fff;opacity:0.30000000000000004;isolation:isolate"></rect><rect x="253.23" y="355.71" width="4.45" height="55.63" style="fill:#fff;opacity:0.2;isolation:isolate"></rect><rect x="92.64" y="350.61" width="165.04" height="5.78" style="fill:#407BFF"></rect><rect x="92.64" y="350.61" width="165.04" height="5.78" style="fill:#fff;opacity:0.30000000000000004;isolation:isolate"></rect><rect x="195.6" y="350.61" width="62.09" height="5.78" style="fill:#fff;opacity:0.2;isolation:isolate"></rect><rect x="87.91" y="295.55" width="167.62" height="5.78" style="fill:#407BFF"></rect><rect x="87.91" y="295.55" width="167.62" height="5.78" style="fill:#fff;opacity:0.30000000000000004;isolation:isolate"></rect><rect x="190.87" y="295.55" width="64.66" height="5.78" style="fill:#fff;opacity:0.2;isolation:isolate"></rect><polygon points="262.49 409.92 82.11 409.92 80.09 411.34 264.51 411.34 262.49 409.92" style="fill:#407BFF"></polygon></g><g id="freepik--Sign--inject-41"><rect x="107.67" y="118.9" width="124.51" height="76.72" rx="5.8" style="fill:#407BFF"></rect><rect x="107.67" y="118.9" width="124.51" height="76.72" rx="5.8" style="fill:#fff;opacity:0.6000000000000001;isolation:isolate"></rect><path d="M170.93,260.84V192.18h-2v68.66a2.37,2.37,0,1,0,2,0Z" style="fill:#407BFF"></path><path d="M170.93,260.84V192.18h-2v68.66a2.37,2.37,0,1,0,2,0Z" style="fill:#fff;opacity:0.6000000000000001;isolation:isolate"></path></g><g id="freepik--Texts--inject-41"><path d="M221.36,152.22H177.84a1.18,1.18,0,0,1-1.18-1.18h0a1.18,1.18,0,0,1,1.18-1.19h43.52a1.19,1.19,0,0,1,1.19,1.19h0A1.18,1.18,0,0,1,221.36,152.22Z" style="fill:#407BFF"></path><path d="M221.36,162.52H177.84a1.18,1.18,0,0,1-1.18-1.19h0a1.18,1.18,0,0,1,1.18-1.18h43.52a1.18,1.18,0,0,1,1.19,1.18h0A1.19,1.19,0,0,1,221.36,162.52Z" style="fill:#407BFF"></path><path d="M221.36,172.82H177.84a1.18,1.18,0,0,1-1.18-1.19h0a1.19,1.19,0,0,1,1.18-1.19h43.52a1.19,1.19,0,0,1,1.19,1.19h0A1.19,1.19,0,0,1,221.36,172.82Z" style="fill:#407BFF"></path><path d="M221.36,183.11H177.84a1.18,1.18,0,0,1-1.18-1.18h0a1.18,1.18,0,0,1,1.18-1.19h43.52a1.19,1.19,0,0,1,1.19,1.19h0A1.18,1.18,0,0,1,221.36,183.11Z" style="fill:#407BFF"></path><path d="M118.41,130.71h2.77a3.41,3.41,0,1,1,0,6.8h-2.77Zm2.73,6.17a2.78,2.78,0,1,0,0-5.55h-2v5.55Z" style="fill:#407BFF"></path><path d="M131.23,136.88v.63h-4.8v-6.8h4.65v.62h-3.94v2.42h3.52v.61h-3.52v2.52Z" style="fill:#407BFF"></path><path d="M132.92,130.71h.71v6.17h3.81v.63h-4.52Z" style="fill:#407BFF"></path><path d="M138.63,130.71h.72v6.8h-.72Z" style="fill:#407BFF"></path><path d="M147.13,130.71l-3,6.8h-.71l-3-6.8h.78l2.6,5.9,2.62-5.9Z" style="fill:#407BFF"></path><path d="M152.91,136.88v.63h-4.8v-6.8h4.66v.62h-3.94v2.42h3.51v.61h-3.51v2.52Z" style="fill:#407BFF"></path><path d="M159.24,137.51l-1.56-2.19a4.63,4.63,0,0,1-.54,0h-1.83v2.16h-.71v-6.8h2.54c1.73,0,2.77.88,2.77,2.33a2.11,2.11,0,0,1-1.55,2.14l1.66,2.33Zm0-4.47c0-1.09-.72-1.71-2.08-1.71h-1.81v3.41h1.81C158.48,134.74,159.2,134.11,159.2,133Z" style="fill:#407BFF"></path><path d="M163.84,135.16v2.35h-.71v-2.35l-2.71-4.45h.76l2.33,3.82,2.33-3.82h.72Z" style="fill:#407BFF"></path><path d="M174.48,135.69h-3.79l-.81,1.82h-.75l3.1-6.8h.71l3.11,6.8h-.76Zm-.27-.58-1.63-3.65L171,135.11Z" style="fill:#407BFF"></path><path d="M177.17,130.71h2.77a3.41,3.41,0,1,1,0,6.8h-2.77Zm2.73,6.17a2.78,2.78,0,1,0,0-5.55h-2v5.55Z" style="fill:#407BFF"></path><path d="M185.18,130.71H188a3.41,3.41,0,1,1,0,6.8h-2.77Zm2.73,6.17a2.78,2.78,0,1,0,0-5.55h-2v5.55Z" style="fill:#407BFF"></path><path d="M197.84,137.51l-1.56-2.19a4.63,4.63,0,0,1-.54,0h-1.83v2.16h-.71v-6.8h2.54c1.73,0,2.77.88,2.77,2.33a2.11,2.11,0,0,1-1.55,2.14l1.66,2.33Zm0-4.47c0-1.09-.72-1.71-2.08-1.71h-1.81v3.41h1.81C197.08,134.74,197.8,134.11,197.8,133Z" style="fill:#407BFF"></path><path d="M205,136.88v.63h-4.8v-6.8h4.66v.62h-3.94v2.42h3.51v.61h-3.51v2.52Z" style="fill:#407BFF"></path><path d="M206.05,136.68l.28-.55a3.37,3.37,0,0,0,2.24.82c1.27,0,1.83-.53,1.83-1.2,0-1.86-4.19-.72-4.19-3.23,0-1,.78-1.87,2.51-1.87a3.79,3.79,0,0,1,2.1.61l-.24.57a3.47,3.47,0,0,0-1.86-.56c-1.24,0-1.8.55-1.8,1.23,0,1.86,4.19.74,4.19,3.21,0,1-.8,1.85-2.54,1.85A3.68,3.68,0,0,1,206.05,136.68Z" style="fill:#407BFF"></path><path d="M212,136.68l.28-.55a3.35,3.35,0,0,0,2.24.82c1.27,0,1.82-.53,1.82-1.2,0-1.86-4.18-.72-4.18-3.23,0-1,.78-1.87,2.5-1.87a3.82,3.82,0,0,1,2.11.61l-.24.57a3.48,3.48,0,0,0-1.87-.56c-1.24,0-1.79.55-1.79,1.23,0,1.86,4.18.74,4.18,3.21,0,1-.79,1.85-2.53,1.85A3.68,3.68,0,0,1,212,136.68Z" style="fill:#407BFF"></path><path d="M121.5,148.6v4.2h-.37l-2.7-3.4v3.4H118v-4.2h.37l2.7,3.41V148.6Z" style="fill:#407BFF"></path><path d="M125.5,151.68h-2.34l-.5,1.12h-.46l1.92-4.2h.43l1.92,4.2H126Zm-.16-.36-1-2.25-1,2.25Z" style="fill:#407BFF"></path><path d="M131.53,148.6v4.2h-.43v-3.36l-1.65,2.83h-.21l-1.64-2.81v3.34h-.43v-4.2h.37l1.82,3.12,1.8-3.12Z" style="fill:#407BFF"></path><path d="M135.87,152.42v.38h-3v-4.2h2.88V149h-2.44v1.49h2.17v.38h-2.17v1.56Z" style="fill:#407BFF"></path><path d="M120.62,162h-2.34l-.5,1.12h-.46l1.92-4.2h.43l1.92,4.2h-.46Zm-.16-.36-1-2.26-1,2.26Z" style="fill:#407BFF"></path><path d="M122.29,158.9H124a2.11,2.11,0,1,1,0,4.2h-1.71Zm1.69,3.81a1.72,1.72,0,1,0,0-3.43h-1.25v3.43Z" style="fill:#407BFF"></path><path d="M127.25,158.9H129a2.11,2.11,0,1,1,0,4.2h-1.71Zm1.68,3.81a1.72,1.72,0,1,0,0-3.43h-1.24v3.43Z" style="fill:#407BFF"></path><path d="M135.07,163.1l-1-1.35-.34,0h-1.12v1.33h-.45v-4.2h1.57c1.07,0,1.72.54,1.72,1.44a1.31,1.31,0,0,1-1,1.32l1,1.44Zm0-2.76c0-.67-.45-1.06-1.29-1.06h-1.11v2.11h1.11C134.6,161.39,135.05,161,135.05,160.34Z" style="fill:#407BFF"></path><path d="M139.51,162.71v.39h-3v-4.2h2.88v.38H137v1.5h2.18v.38H137v1.55Z" style="fill:#407BFF"></path><path d="M140.15,162.59l.18-.34a2.07,2.07,0,0,0,1.38.51c.79,0,1.13-.33,1.13-.75,0-1.15-2.58-.44-2.58-2,0-.62.47-1.16,1.54-1.16a2.29,2.29,0,0,1,1.3.38l-.15.35a2.2,2.2,0,0,0-1.15-.35c-.76,0-1.11.34-1.11.76,0,1.16,2.59.46,2.59,2,0,.62-.49,1.14-1.57,1.14A2.31,2.31,0,0,1,140.15,162.59Z" style="fill:#407BFF"></path><path d="M143.84,162.59l.18-.34a2.07,2.07,0,0,0,1.38.51c.79,0,1.13-.33,1.13-.75,0-1.15-2.58-.44-2.58-2,0-.62.48-1.16,1.54-1.16a2.29,2.29,0,0,1,1.3.38l-.15.35a2.2,2.2,0,0,0-1.15-.35c-.76,0-1.11.34-1.11.76,0,1.16,2.59.46,2.59,2,0,.62-.49,1.14-1.57,1.14A2.31,2.31,0,0,1,143.84,162.59Z" style="fill:#407BFF"></path><path d="M121.28,170.64c0,.89-.65,1.43-1.72,1.43h-1.13v1.33H118v-4.2h1.57C120.63,169.2,121.28,169.74,121.28,170.64Zm-.45,0c0-.67-.44-1.06-1.28-1.06h-1.12v2.1h1.12C120.39,171.68,120.83,171.3,120.83,170.64Z" style="fill:#407BFF"></path><path d="M121.93,171.3a2.2,2.2,0,1,1,2.2,2.13A2.11,2.11,0,0,1,121.93,171.3Zm4,0a1.77,1.77,0,1,0-1.76,1.74A1.7,1.7,0,0,0,125.89,171.3Z" style="fill:#407BFF"></path><path d="M126.93,172.89l.17-.35a2,2,0,0,0,1.39.51c.78,0,1.13-.33,1.13-.74,0-1.15-2.59-.44-2.59-2,0-.61.48-1.15,1.55-1.15a2.42,2.42,0,0,1,1.3.37l-.15.36a2.11,2.11,0,0,0-1.15-.35c-.77,0-1.11.34-1.11.76,0,1.15,2.58.46,2.58,2,0,.61-.49,1.14-1.56,1.14A2.29,2.29,0,0,1,126.93,172.89Z" style="fill:#407BFF"></path><path d="M131.78,169.58H130.3v-.38h3.4v.38h-1.48v3.82h-.44Z" style="fill:#407BFF"></path><path d="M136.83,172.27h-2.34l-.5,1.13h-.47l1.92-4.2h.44l1.92,4.2h-.47Zm-.16-.36-1-2.25-1,2.25Z" style="fill:#407BFF"></path><path d="M138.5,169.2h.44V173h2.35v.39H138.5Z" style="fill:#407BFF"></path><path d="M143.23,171.3a2.11,2.11,0,0,1,2.2-2.14,2.07,2.07,0,0,1,1.54.61l-.28.29a1.69,1.69,0,0,0-1.25-.5,1.74,1.74,0,1,0,0,3.48,1.66,1.66,0,0,0,1.25-.51l.28.28a2,2,0,0,1-1.54.62A2.11,2.11,0,0,1,143.23,171.3Z" style="fill:#407BFF"></path><path d="M147.46,171.3a2.2,2.2,0,1,1,2.2,2.13A2.11,2.11,0,0,1,147.46,171.3Zm4,0a1.77,1.77,0,1,0-1.76,1.74A1.7,1.7,0,0,0,151.42,171.3Z" style="fill:#407BFF"></path><path d="M152.86,169.2h1.71a2.11,2.11,0,1,1,0,4.2h-1.71Zm1.69,3.81a1.72,1.72,0,1,0,0-3.43h-1.24V173Z" style="fill:#407BFF"></path><path d="M160.79,173v.39h-3v-4.2h2.88v.38h-2.44v1.49h2.17v.38h-2.17V173Z" style="fill:#407BFF"></path><path d="M121.28,180.93c0,.9-.65,1.44-1.72,1.44h-1.13v1.32H118v-4.2h1.57C120.63,179.49,121.28,180,121.28,180.93Zm-.45,0c0-.67-.44-1.05-1.28-1.05h-1.12V182h1.12C120.39,182,120.83,181.59,120.83,180.93Z" style="fill:#407BFF"></path><path d="M125.75,179.49v4.2h-.44v-1.94h-2.63v1.94h-.44v-4.2h.44v1.88h2.63v-1.88Z" style="fill:#407BFF"></path><path d="M126.74,181.59a2.21,2.21,0,1,1,2.21,2.14A2.11,2.11,0,0,1,126.74,181.59Zm4,0a1.77,1.77,0,1,0-1.76,1.74A1.7,1.7,0,0,0,130.71,181.59Z" style="fill:#407BFF"></path><path d="M135.66,179.49v4.2h-.37l-2.7-3.4v3.4h-.44v-4.2h.37l2.7,3.41v-3.41Z" style="fill:#407BFF"></path><path d="M140,183.31v.38h-3v-4.2h2.88v.39h-2.44v1.49h2.17v.38h-2.17v1.56Z" style="fill:#407BFF"></path><path d="M167.62,150a.33.33,0,1,1,.65,0,.33.33,0,1,1-.65,0Zm0,2.55a.33.33,0,0,1,.65,0,.33.33,0,1,1-.65,0Z" style="fill:#407BFF"></path><path d="M167.62,160.24a.33.33,0,0,1,.65,0,.33.33,0,1,1-.65,0Zm0,2.56a.33.33,0,0,1,.65,0,.33.33,0,1,1-.65,0Z" style="fill:#407BFF"></path><path d="M167.62,170.54a.33.33,0,0,1,.65,0,.33.33,0,1,1-.65,0Zm0,2.56a.33.33,0,1,1,.65,0,.33.33,0,1,1-.65,0Z" style="fill:#407BFF"></path><path d="M167.62,180.84a.33.33,0,1,1,.65,0,.33.33,0,1,1-.65,0Zm0,2.55a.33.33,0,0,1,.65,0,.33.33,0,1,1-.65,0Z" style="fill:#407BFF"></path></g><g id="freepik--Locator--inject-41"><path d="M239.37,110.63h0a12.66,12.66,0,0,0-17.91,17.9l8.95,9,9-9A12.66,12.66,0,0,0,239.37,110.63Zm-4.81,13.1h0a5.86,5.86,0,1,1,0-8.29h0A5.86,5.86,0,0,1,234.56,123.73Z" style="fill:#407BFF"></path></g><g id="freepik--Character--inject-41"><g id="freepik--group--inject-41"><path d="M346,187.21c-4.69.44-11.37,22.92-11.37,22.92l12.9,1.67.65-21.55Z" style="fill:#407BFF"></path><path d="M346,187.21c-4.69.44-11.37,22.92-11.37,22.92l12.9,1.67.65-21.55Z" style="fill:#fff;opacity:0.1;isolation:isolate"></path><path d="M376.89,412.9H386a.66.66,0,0,1,.64.52l1.48,6.66a1.11,1.11,0,0,1-.85,1.31,1.07,1.07,0,0,1-.25,0c-2.94-.05-5.08-.23-8.78-.23-2.27,0-9.14.24-12.28.24s-3.56-3.11-2.27-3.4c5.77-1.25,10.11-3,12-4.65A1.78,1.78,0,0,1,376.89,412.9Z" style="fill:#263238"></path><path d="M338.32,412.66h9.09a.66.66,0,0,1,.64.52l1.48,6.66a1.11,1.11,0,0,1-.86,1.31,1,1,0,0,1-.24,0c-2.94-.05-5.09-.23-8.78-.23-2.28,0-9.14.24-12.29.24s-3.55-3.11-2.26-3.39c5.77-1.26,10.11-3,12-4.66A1.82,1.82,0,0,1,338.32,412.66Z" style="fill:#263238"></path><path d="M376.89,412.9H386a.66.66,0,0,1,.64.52l1.48,6.66a1.11,1.11,0,0,1-.85,1.31,1.07,1.07,0,0,1-.25,0c-2.94-.05-5.08-.23-8.78-.23-2.27,0-9.14.24-12.28.24s-3.56-3.11-2.27-3.4c5.77-1.25,10.11-3,12-4.65A1.78,1.78,0,0,1,376.89,412.9Z" style="fill:#fff;opacity:0.30000000000000004"></path><path d="M338.32,412.66h9.09a.66.66,0,0,1,.64.52l1.48,6.66a1.11,1.11,0,0,1-.86,1.31,1,1,0,0,1-.24,0c-2.94-.05-5.09-.23-8.78-.23-2.28,0-9.14.24-12.29.24s-3.55-3.11-2.26-3.39c5.77-1.26,10.11-3,12-4.66A1.82,1.82,0,0,1,338.32,412.66Z" style="fill:#fff;opacity:0.30000000000000004"></path><path d="M381.71,244.3H342c-3.78,20.63-15.6,104.41-7.12,169.47h13.46S347.06,315,358.94,283c1.36,17.09,15.25,130.66,15.25,130.66h13.7s-2.05-42.72-4.1-83.08C382.5,305.21,381.77,249.52,381.71,244.3Z" style="fill:#263238"></path><path d="M358.94,283a106.09,106.09,0,0,0-4.44,17.2c-1.11-15.21,3.33-31.34,3.33-31.34Z" style="opacity:0.2;isolation:isolate"></path><polygon points="341.64 244.78 381.64 244.78 381.64 249.54 341.13 249.05 341.64 244.78"></polygon><rect x="367.35" y="242.63" width="1.43" height="8.45" style="fill:#263238"></rect><rect x="347.12" y="242.63" width="1.43" height="8.45" style="fill:#263238"></rect><rect x="352.47" y="243.94" width="7.4" height="5.33" style="fill:#fff"></rect><path d="M341.66,245.55h40.1c.91-19.51,6-46,7.38-53.13a1.92,1.92,0,0,0-1.47-2.27c-2-.44-4.09-.82-6.19-1.14a194.73,194.73,0,0,0-28.58-1.92c-4.23,0-6.89.12-6.89.12C341.15,204.6,341.25,232.64,341.66,245.55Z" style="fill:#407BFF"></path><path d="M341.66,245.55h40.1a327.27,327.27,0,0,1,4.09-34.84c1.35-8.32,2.67-15.16,3.29-18.29a1.46,1.46,0,0,0,0-.51,1.91,1.91,0,0,0-1.5-1.76c-2-.44-4.09-.82-6.19-1.14a194.73,194.73,0,0,0-28.58-1.92c-4.23,0-6.89.12-6.89.12C341.15,204.6,341.25,232.64,341.66,245.55Z" style="fill:#fff;opacity:0.30000000000000004;isolation:isolate"></path><path d="M374.79,188.06c-3.44,3.12-11.86,2-11.86,2s-5.26-1.44-4.15-3.08c3.09-.51,4.59-2,5.21-3.81a8.93,8.93,0,0,0,.31-3.53,16.77,16.77,0,0,0-.26-2l10.41-7.71C373.09,175,371.42,184.37,374.79,188.06Z" style="fill:#e4897b"></path><path d="M372.05,174.82c-.41,6.25-5.55,8-8.06,8.32a8.93,8.93,0,0,0,.31-3.53Z" style="opacity:0.2;isolation:isolate"></path><path d="M373.25,184.1l-9.95,4.48-.58-3.59-3.66,1.28a3,3,0,0,0-2,3.15l.41,4,5-2.76,2.51,3.55L377,188.41Z" style="fill:#407BFF"></path><path d="M373.25,184.1l-9.95,4.48-.58-3.59-3.66,1.28a3,3,0,0,0-2,3.15l.41,4,5-2.76,2.51,3.55L377,188.41Z" style="fill:#fff;opacity:0.1;isolation:isolate"></path><path d="M350.05,159.25c-1.95.76,13.38.91,13.38.91S358.6,155.91,350.05,159.25Z" style="fill:#407BFF"></path><path d="M350.05,159.25c-1.95.76,13.38.91,13.38.91S358.6,155.91,350.05,159.25Z" style="opacity:0.2;isolation:isolate"></path><path d="M356.74,154.13s-3.4,9.87,1.37,14.39,7.21-14,7.21-14Z" style="fill:#263238"></path><path d="M356.09,174.12c.1.35.22.69.35,1a10.14,10.14,0,0,0,5.12,5.43,9.32,9.32,0,0,0,6.71.53,9.15,9.15,0,0,0,4.11-2.65c3.51-3.82,3.26-8.06,3.41-15.27a9.87,9.87,0,0,0-14-9.34C354.88,157,354.3,167.7,356.09,174.12Z" style="fill:#e4897b"></path><path d="M364.93,165.61c.07.58-.26,1.07-.65,1.08s-.71-.45-.74-1,.28-1.07.66-1.08S364.91,165,364.93,165.61Z" style="fill:#263238"></path><path d="M358.3,165.86c.07.58-.27,1.07-.65,1.08s-.71-.45-.74-1,.28-1.07.66-1.08S358.28,165.3,358.3,165.86Z" style="fill:#263238"></path><path d="M360.42,166.07a21,21,0,0,1-2.61,5.12,3.43,3.43,0,0,0,2.84.42Z" style="fill:#de5753"></path><path d="M355.74,163.12a.36.36,0,0,0,.36,0,2.79,2.79,0,0,1,2.46-.39.34.34,0,0,0,.45-.18.35.35,0,0,0-.18-.45h0a3.4,3.4,0,0,0-3.1.45.34.34,0,0,0-.11.47h0A.43.43,0,0,0,355.74,163.12Z" style="fill:#263238"></path><path d="M366.15,162.91a.42.42,0,0,0,.18-.08.34.34,0,0,0,0-.48h0a3.42,3.42,0,0,0-3.08-.66.33.33,0,0,0-.21.43h0a.35.35,0,0,0,.43.22h0a2.76,2.76,0,0,1,2.43.56A.35.35,0,0,0,366.15,162.91Z" style="fill:#263238"></path><path d="M370.17,154.39l-.42,3.18a2.37,2.37,0,0,1,1.16,3c-1.06,2.66.42,6.82,2.45,8.5,0,0,.08-1.16,1.05-.88s.65,6.31-1.29,9.17c0,0,2.91-2.57,4.6-8.89,1.56-5.83,1.8-10.71.62-13Z" style="fill:#263238"></path><path d="M379.16,169a6.83,6.83,0,0,1-3.8,3.61c-2.25.85-3.59-1.11-3.15-3.35.42-2,2.07-4.88,4.42-4.75S380,166.92,379.16,169Z" style="fill:#e4897b"></path><path d="M361.74,174.53a.25.25,0,0,1-.24-.19.24.24,0,0,1,.18-.3,5.26,5.26,0,0,0,2.83-2.22.26.26,0,0,1,.35-.08.25.25,0,0,1,.08.34,5.6,5.6,0,0,1-3.14,2.44Z" style="fill:#263238"></path><path d="M355.07,157.3s2.88-7.71,4.14-8.64,5.5-1.67,9.38-1.12,9.37,4.18,10.45,6,0,8.73,0,8.73l-8.56-2.51Z" style="fill:#407BFF"></path><path d="M355.07,157.3s2.88-7.71,4.14-8.64,5.5-1.67,9.38-1.12,9.37,4.18,10.45,6,0,8.73,0,8.73l-8.56-2.51Z" style="fill:#fff;opacity:0.1;isolation:isolate"></path><path d="M350.05,159.25s7.9-3.91,11.61-4,9,2.23,10.31,4.09c0,0-6.59,2-9.29.83A23.38,23.38,0,0,0,350.05,159.25Z" style="fill:#407BFF"></path><polygon points="358.06 153.68 361.98 150.31 361.57 152.43 366.33 152.41 366.14 153.62 358.06 153.68" style="fill:#fff"></polygon><polygon points="362.41 151.03 366.44 150.98 366.25 151.82 362.21 151.81 362.41 151.03" style="fill:#fff"></polygon><rect x="303.31" y="204.93" width="54.73" height="38.88" style="fill:#263238"></rect><rect x="303.31" y="204.93" width="54.73" height="38.88" style="fill:#fff;opacity:0.30000000000000004;isolation:isolate"></rect><rect x="303.31" y="204.93" width="32.44" height="38.88" style="fill:#fff;opacity:0.1;isolation:isolate"></rect><rect x="345.04" y="204.93" width="4.58" height="4.08" style="fill:#fff;opacity:0.30000000000000004;isolation:isolate"></rect><rect x="345.04" y="240.22" width="4.58" height="3.59" style="fill:#fff;opacity:0.30000000000000004;isolation:isolate"></rect><rect x="322.01" y="235.39" width="11.39" height="6.32" style="fill:#fff;opacity:0.30000000000000004;isolation:isolate"></rect><rect x="305.04" y="206.91" width="8.42" height="3.22" style="fill:#fff;opacity:0.30000000000000004;isolation:isolate"></rect><path d="M378.94,212s-1.56,8.91-3,10.4c-3.17,3.34-25.57,5.64-25.57,5.64l.35,5s23.45-1.44,27.89-4.64c3.67-2.64,7.94-15.54,7.94-15.54Z" style="fill:#e4897b"></path><path d="M351.35,229.54s-.74-2.51-1.39-3-9.84-.47-10.31-.47.28,7.52.93,8.27,8.17,0,9.38-.28S352,231.67,351.35,229.54Z" style="fill:#e4897b"></path><path d="M387.67,190.15c9.24,3.27-3.13,32.36-3.13,32.36L376.37,220S380.9,187.75,387.67,190.15Z" style="fill:#407BFF"></path><path d="M387.67,190.15c9.24,3.27-3.13,32.36-3.13,32.36L376.37,220S380.9,187.75,387.67,190.15Z" style="fill:#fff;opacity:0.1;isolation:isolate"></path><polygon points="376.06 217.28 385.99 220.62 384.97 223.59 375.5 219.97 376.06 217.28" style="fill:#407BFF"></polygon><polygon points="366.63 203.43 370.83 200.42 370.24 202.49 374.99 202.89 374.69 204.08 366.63 203.43" style="fill:#fff"></polygon><polygon points="371.2 201.18 375.22 201.47 374.96 202.3 370.93 201.93 371.2 201.18" style="fill:#fff"></polygon></g></g></svg>